<svg
 xmlns="http://www.w3.org/2000/svg"
 xmlns:xlink="http://www.w3.org/1999/xlink"
 width="47px" height="45px">
<path fill-rule="evenodd"  fill="rgb(255, 239, 0)"
 d="M20.007,0.903 C18.247,1.859 17.039,3.343 16.415,5.316 C16.182,6.053 16.066,6.830 16.066,7.645 C16.066,9.579 16.720,11.727 18.024,14.063 C18.165,14.314 18.221,14.623 18.221,14.952 C18.221,15.414 18.109,15.913 17.966,16.348 C17.192,16.322 16.250,16.154 15.767,15.659 C13.884,13.725 12.132,12.522 10.411,11.984 C8.152,11.276 6.040,11.409 4.133,12.377 C2.215,13.353 0.926,14.848 0.302,16.823 C-0.284,18.675 -0.022,20.609 1.082,22.568 C2.163,24.487 3.744,25.784 5.783,26.423 C7.293,26.893 9.400,26.883 12.226,26.393 C12.908,26.275 13.782,26.478 14.715,26.932 C14.386,27.758 13.846,28.641 12.955,29.093 C9.868,30.663 7.883,32.788 7.053,35.408 C6.795,36.226 6.665,37.028 6.665,37.811 C6.665,38.954 6.941,40.055 7.491,41.105 C8.417,42.870 9.844,44.065 11.733,44.656 C13.768,45.292 15.789,45.024 17.741,43.858 C19.618,42.741 20.954,40.967 21.707,38.588 C21.959,37.792 22.289,36.423 22.712,34.422 C22.824,34.264 23.156,33.844 24.009,33.012 C24.884,33.882 25.005,34.286 25.012,34.310 C25.716,37.807 26.385,40.402 27.361,41.699 C28.432,43.125 29.864,44.126 31.616,44.674 C33.469,45.252 35.292,45.053 37.035,44.083 C38.742,43.136 39.909,41.705 40.502,39.829 C40.739,39.080 40.858,38.330 40.858,37.583 C40.858,36.333 40.526,35.090 39.865,33.868 C38.856,31.997 36.719,30.302 33.333,28.688 C33.034,28.543 32.627,27.719 32.365,26.913 C33.107,26.490 33.977,26.084 34.330,26.081 C38.136,26.382 40.594,26.492 42.590,25.495 C44.644,24.468 46.002,22.952 46.624,20.988 C47.223,19.096 47.049,17.245 46.107,15.486 C45.170,13.736 43.704,12.539 41.747,11.926 C40.010,11.385 38.392,11.376 36.937,11.900 C35.202,12.532 33.446,13.769 31.564,15.685 C30.795,16.468 30.043,16.598 29.486,16.553 C29.228,15.877 28.984,15.133 28.932,14.760 C29.553,13.127 29.964,11.990 30.182,11.300 C30.540,10.165 30.720,9.069 30.720,8.016 C30.720,6.776 30.471,5.598 29.974,4.490 C29.022,2.360 27.521,0.961 25.513,0.332 C23.639,-0.253 21.787,-0.061 20.007,0.903 ZM19.687,20.004 C20.013,19.926 20.318,19.762 20.561,19.531 C21.240,18.887 21.752,16.942 21.757,16.922 C22.218,15.153 22.076,13.530 21.349,12.227 C20.021,9.850 19.582,7.906 20.043,6.450 C20.371,5.413 20.938,4.705 21.828,4.222 C22.689,3.756 23.498,3.666 24.372,3.939 C25.319,4.235 25.996,4.899 26.500,6.028 C27.038,7.227 27.055,8.580 26.554,10.166 C26.349,10.812 25.921,11.992 25.280,13.672 C25.277,13.681 25.273,13.690 25.270,13.700 C24.617,15.497 26.464,19.136 26.484,19.168 C26.700,19.510 27.037,19.780 27.414,19.928 L27.419,19.930 C29.266,20.655 32.039,20.614 34.285,18.326 C35.740,16.845 37.071,15.877 38.239,15.453 C38.896,15.216 39.672,15.241 40.607,15.533 C41.604,15.845 42.286,16.395 42.750,17.262 C43.207,18.116 43.286,18.940 42.997,19.853 C42.686,20.831 42.015,21.551 40.882,22.117 C39.689,22.713 37.111,22.509 34.617,22.311 C33.613,22.231 32.396,22.586 30.899,23.394 C28.889,24.479 28.662,24.937 28.526,25.211 C28.521,25.221 28.514,25.234 28.509,25.244 C28.383,25.510 28.048,26.217 28.919,28.583 C29.565,30.339 30.494,31.519 31.680,32.092 C34.922,33.638 36.098,34.883 36.515,35.656 C37.084,36.708 37.198,37.673 36.874,38.695 C36.574,39.645 36.036,40.308 35.180,40.782 C34.361,41.238 33.592,41.328 32.755,41.068 C31.769,40.759 31.000,40.225 30.407,39.435 C30.104,39.033 29.570,37.689 28.740,33.562 C28.469,32.216 27.380,30.797 25.311,29.094 C25.311,29.094 25.616,29.346 25.141,28.974 C24.409,28.401 23.355,28.451 22.668,29.076 L22.596,29.141 C19.659,31.802 19.232,32.693 19.062,33.320 C19.053,33.355 19.044,33.390 19.037,33.426 C18.520,35.888 18.231,36.975 18.080,37.454 C17.608,38.943 16.857,39.978 15.785,40.616 C14.777,41.218 13.852,41.355 12.874,41.049 C11.957,40.763 11.318,40.225 10.863,39.357 C10.407,38.487 10.349,37.592 10.681,36.542 C11.200,34.901 12.510,33.566 14.686,32.459 C16.728,31.423 18.187,29.324 18.794,26.548 C18.794,26.548 19.146,25.621 17.947,24.432 C16.748,23.244 13.511,22.333 11.573,22.668 C8.709,23.165 7.431,22.974 6.923,22.816 C5.827,22.472 5.001,21.787 4.400,20.721 C3.821,19.692 3.667,18.788 3.930,17.957 C4.246,16.957 4.861,16.254 5.864,15.743 C6.863,15.236 7.977,15.185 9.268,15.590 C10.355,15.930 11.623,16.838 13.036,18.289 C15.182,20.491 18.885,20.195 19.687,20.004 ZM22.159,29.909 C22.156,29.922 22.153,29.938 22.149,29.951 C22.152,29.937 22.156,29.923 22.159,29.909 ZM22.759,34.198 C22.753,34.230 22.752,34.242 22.752,34.248 C22.752,34.251 22.752,34.252 22.752,34.253 C22.752,34.256 22.749,34.265 22.741,34.286 C22.747,34.256 22.753,34.229 22.759,34.198 Z"/>
</svg>
