<svg xmlns="http://www.w3.org/2000/svg" width="47" height="45"><path fill-rule="evenodd" fill="#FFEF00" d="M20.007.903c-1.76.956-2.968 2.44-3.592 4.413a7.684 7.684 0 00-.349 2.329c0 1.934.654 4.082 1.958 6.418.141.251.197.56.197.889 0 .462-.112.961-.255 1.396-.774-.026-1.716-.194-2.199-.689-1.883-1.934-3.635-3.137-5.356-3.675-2.259-.708-4.371-.575-6.278.393-1.918.976-3.207 2.471-3.831 4.446-.586 1.852-.324 3.786.78 5.745 1.081 1.919 2.662 3.216 4.701 3.855 1.51.47 3.617.46 6.443-.03.682-.118 1.556.085 2.489.539-.329.826-.869 1.709-1.76 2.161-3.087 1.57-5.072 3.695-5.902 6.315a7.97 7.97 0 00-.388 2.403c0 1.143.276 2.244.826 3.294.926 1.765 2.353 2.96 4.242 3.551 2.035.636 4.056.368 6.008-.798 1.877-1.117 3.213-2.891 3.966-5.27.252-.796.582-2.165 1.005-4.166.112-.158.444-.578 1.297-1.41.875.87.996 1.274 1.003 1.298.704 3.497 1.373 6.092 2.349 7.389 1.071 1.426 2.503 2.427 4.255 2.975 1.853.578 3.676.379 5.419-.591 1.707-.947 2.874-2.378 3.467-4.254a7.416 7.416 0 00.356-2.246c0-1.25-.332-2.493-.993-3.715-1.009-1.871-3.146-3.566-6.532-5.18-.299-.145-.706-.969-.968-1.775.742-.423 1.612-.829 1.965-.832 3.806.301 6.264.411 8.26-.586 2.054-1.027 3.412-2.543 4.034-4.507.599-1.892.425-3.743-.517-5.502-.937-1.75-2.403-2.947-4.36-3.56-1.737-.541-3.355-.55-4.81-.026-1.735.632-3.491 1.869-5.373 3.785-.769.783-1.521.913-2.078.868-.258-.676-.502-1.42-.554-1.793.621-1.633 1.032-2.77 1.25-3.46.358-1.135.538-2.231.538-3.284 0-1.24-.249-2.418-.746-3.526-.952-2.13-2.453-3.529-4.461-4.158-1.874-.585-3.726-.393-5.506.571zm-.32 19.101c.326-.078.631-.242.874-.473.679-.644 1.191-2.589 1.196-2.609.461-1.769.319-3.392-.408-4.695-1.328-2.377-1.767-4.321-1.306-5.777.328-1.037.895-1.745 1.785-2.228.861-.466 1.67-.556 2.544-.283.947.296 1.624.96 2.128 2.089.538 1.199.555 2.552.054 4.138-.205.646-.633 1.826-1.274 3.506l-.01.028c-.653 1.797 1.194 5.436 1.214 5.468.216.342.553.612.93.76l.005.002c1.847.725 4.62.684 6.866-1.604 1.455-1.481 2.786-2.449 3.954-2.873.657-.237 1.433-.212 2.368.08.997.312 1.679.862 2.143 1.729.457.854.536 1.678.247 2.591-.311.978-.982 1.698-2.115 2.264-1.193.596-3.771.392-6.265.194-1.004-.08-2.221.275-3.718 1.083-2.01 1.085-2.237 1.543-2.373 1.817l-.017.033c-.126.266-.461.973.41 3.339.646 1.756 1.575 2.936 2.761 3.509 3.242 1.546 4.418 2.791 4.835 3.564.569 1.052.683 2.017.359 3.039-.3.95-.838 1.613-1.694 2.087-.819.456-1.588.546-2.425.286-.986-.309-1.755-.843-2.348-1.633-.303-.402-.837-1.746-1.667-5.873-.271-1.346-1.36-2.765-3.429-4.468 0 0 .305.252-.17-.12a1.928 1.928 0 00-2.473.102l-.072.065c-2.937 2.661-3.364 3.552-3.534 4.179-.009.035-.018.07-.025.106-.517 2.462-.806 3.549-.957 4.028-.472 1.489-1.223 2.524-2.295 3.162-1.008.602-1.933.739-2.911.433-.917-.286-1.556-.824-2.011-1.692-.456-.87-.514-1.765-.182-2.815.519-1.641 1.829-2.976 4.005-4.083 2.042-1.036 3.501-3.135 4.108-5.911 0 0 .352-.927-.847-2.116-1.199-1.188-4.436-2.099-6.374-1.764-2.864.497-4.142.306-4.65.148-1.096-.344-1.922-1.029-2.523-2.095-.579-1.029-.733-1.933-.47-2.764.316-1 .931-1.703 1.934-2.214.999-.507 2.113-.558 3.404-.153 1.087.34 2.355 1.248 3.768 2.699 2.146 2.202 5.849 1.906 6.651 1.715zm2.472 9.905l-.01.042.01-.042zm.6 4.289a.307.307 0 00-.007.05v.005a.175.175 0 01-.011.033l.018-.088z"/></svg>